<svg width="61" height="59" viewBox="0 0 61 59" fill="none" xmlns="http://www.w3.org/2000/svg">
<path d="M22.3433 58.1729C20.7775 58.1729 19.508 58.0142 18.5347 57.6968C17.5825 57.3794 16.7573 56.9245 16.0591 56.332C15.382 55.7396 14.6732 55.0519 13.9326 54.269L3.1416 42.6846C2.52799 42.0498 2.0625 41.4468 1.74512 40.8755C1.42773 40.3042 1.20557 39.6906 1.07861 39.0347C0.95166 38.3576 0.888184 37.543 0.888184 36.5908V22.1816C0.888184 21.2083 0.95166 20.3937 1.07861 19.7378C1.20557 19.0607 1.42773 18.4471 1.74512 17.897C2.0625 17.3257 2.52799 16.7227 3.1416 16.0879L13.9326 4.47168C14.6732 3.6888 15.382 3.01172 16.0591 2.44043C16.7573 1.84798 17.5825 1.39307 18.5347 1.07568C19.508 0.737142 20.7775 0.567871 22.3433 0.567871H38.6885C40.2331 0.567871 41.4814 0.737142 42.4336 1.07568C43.4069 1.39307 44.2427 1.84798 44.9409 2.44043C45.6392 3.01172 46.348 3.6888 47.0674 4.47168L57.8584 16.0879C58.4508 16.7227 58.9058 17.3257 59.2231 17.897C59.5617 18.4471 59.7944 19.0607 59.9214 19.7378C60.0483 20.3937 60.1118 21.2083 60.1118 22.1816V36.5908C60.1118 37.543 60.0483 38.3576 59.9214 39.0347C59.7944 39.6906 59.5617 40.3042 59.2231 40.8755C58.9058 41.4468 58.4508 42.0498 57.8584 42.6846L47.0674 54.269C46.348 55.0519 45.6392 55.7396 44.9409 56.332C44.2427 56.9245 43.4069 57.3794 42.4336 57.6968C41.4814 58.0142 40.2331 58.1729 38.6885 58.1729H22.3433ZM23.0732 55.1895H37.9268C39.2174 55.1895 40.2225 55.0837 40.9419 54.8721C41.6825 54.6605 42.3278 54.3114 42.8779 53.8247C43.4492 53.3592 44.0946 52.735 44.814 51.9521L55.2559 40.7803C55.8906 40.1243 56.3032 39.5002 56.4937 38.9077C56.6841 38.3153 56.7793 37.4478 56.7793 36.3052V22.4355C56.7793 21.293 56.6841 20.436 56.4937 19.8647C56.3032 19.2723 55.8906 18.6375 55.2559 17.9604L44.814 6.78857C44.0946 6.02686 43.4492 5.41325 42.8779 4.94775C42.3278 4.4611 41.6825 4.11198 40.9419 3.90039C40.2225 3.66764 39.2174 3.55127 37.9268 3.55127H23.0732C21.8037 3.55127 20.7881 3.66764 20.0264 3.90039C19.2858 4.11198 18.6405 4.4611 18.0903 4.94775C17.5402 5.41325 16.9054 6.02686 16.186 6.78857L5.74414 17.9604C5.13053 18.6375 4.71794 19.2723 4.50635 19.8647C4.31592 20.436 4.2207 21.293 4.2207 22.4355V36.3052C4.2207 37.4478 4.31592 38.3153 4.50635 38.9077C4.71794 39.5002 5.13053 40.1243 5.74414 40.7803L16.186 51.9521C16.9054 52.735 17.5402 53.3592 18.0903 53.8247C18.6405 54.3114 19.2858 54.6605 20.0264 54.8721C20.7881 55.0837 21.8037 55.1895 23.0732 55.1895ZM30.5 34.7183C29.4632 34.7183 28.9342 34.1576 28.9131 33.0361L28.6592 16.8813C28.638 16.3312 28.7967 15.8869 29.1353 15.5483C29.495 15.2098 29.9499 15.0405 30.5 15.0405C31.029 15.0405 31.4733 15.2204 31.833 15.5801C32.1927 15.9186 32.362 16.363 32.3408 16.9131L32.0552 33.0361C32.034 34.1576 31.5156 34.7183 30.5 34.7183ZM30.5 43.7319C29.8229 43.7319 29.2305 43.4886 28.7227 43.002C28.236 42.5153 27.9927 41.944 27.9927 41.2881C27.9927 40.611 28.236 40.0291 28.7227 39.5425C29.2093 39.0558 29.8018 38.8125 30.5 38.8125C31.1982 38.8125 31.7907 39.0558 32.2773 39.5425C32.764 40.008 33.0073 40.5898 33.0073 41.2881C33.0073 41.944 32.764 42.5153 32.2773 43.002C31.7907 43.4886 31.1982 43.7319 30.5 43.7319Z" fill="black"/>
</svg>
